<?xml version="1.0" standalone="no"?><!DOCTYPE svg PUBLIC "-//W3C//DTD SVG 1.1//EN" "http://www.w3.org/Graphics/SVG/1.1/DTD/svg11.dtd"><svg t="1582437437345" class="icon" viewBox="0 0 1024 1024" version="1.1" xmlns="http://www.w3.org/2000/svg" p-id="2008" xmlns:xlink="http://www.w3.org/1999/xlink" width="128" height="128"><defs><style type="text/css"></style></defs><path d="M551.8131233 518.58778299L761.76290298 308.63800331c10.59773785-10.59773785 10.59773785-28.06968405-1e-8-38.66742189l-1.1457014-1.14570139c-10.59773785-10.59773785-28.06968405-10.59773785-38.6674219 0L512 479.06108504l-209.94977967-210.23620502c-10.59773785-10.59773785-28.06968405-10.59773785-38.66742191 0l-1.14570139 1.1457014c-10.88416321 10.59773785-10.88416321 28.06968405 0 38.6674219l209.94977967 209.94977967L262.23709702 728.53756267c-10.59773785 10.59773785-10.59773785 28.06968405 1e-8 38.6674219l1.1457014 1.1457014c10.59773785 10.59773785 28.06968405 10.59773785 38.6674219 0L512 558.4009063l209.94977967 209.94977967c10.59773785 10.59773785 28.06968405 10.59773785 38.66742191 0l1.14570139-1.1457014c10.59773785-10.59773785 10.59773785-28.06968405 0-38.6674219L551.8131233 518.58778299z" p-id="2009" fill="#dce1fc"></path></svg>